<svg width="7" height="6" viewBox="0 0 7 6" fill="none" xmlns="http://www.w3.org/2000/svg">
<path d="M6.7649 1.8249L3.19302 5.27271C3.04115 5.41931 2.83926 5.5 2.62449 5.5C2.40973 5.5 2.20784 5.41931 2.05597 5.27271L0.235527 3.51551C0.0836506 3.36891 0 3.17403 0 2.96673C0 2.75937 0.0836506 2.56449 0.235527 2.41789C0.387344 2.27129 0.589233 2.19055 0.804055 2.19055C1.01882 2.19055 1.22077 2.27129 1.37258 2.41795L2.62443 3.62626L5.62773 0.727288C5.77961 0.580688 5.98149 0.5 6.19626 0.5C6.41102 0.5 6.61291 0.580688 6.76478 0.727288C7.07839 1.03 7.07839 1.52231 6.7649 1.8249Z" fill="#7FB0A9"/>
</svg>
