<svg width="22" height="16" viewBox="0 0 22 16" fill="none" xmlns="http://www.w3.org/2000/svg">
<path d="M21 10.914C21 13.1702 19.2418 14.9992 17.0738 14.9992H4.92554C2.75757 14.9992 1 13.1702 1 10.914C1 8.87638 2.43338 7.18835 4.30868 6.87948C4.28492 6.73647 4.27181 6.58934 4.27181 6.43788C4.27181 5.00835 5.38555 3.84965 6.75978 3.84965C7.37264 3.84965 7.93425 4.08025 8.36753 4.46393C9.13997 2.65283 10.1302 1 12.9082 1C16.2774 1 17.8742 3.70372 17.8742 6.55673C17.8742 6.67606 17.8694 6.79429 17.8616 6.91127C19.6524 7.29097 21 8.93866 21 10.914Z" stroke="#7FB0A9" stroke-width="1.12266"/>
</svg>
