<svg width="27" height="18" viewBox="0 0 27 18" fill="none" xmlns="http://www.w3.org/2000/svg">
<path fill-rule="evenodd" clip-rule="evenodd" d="M25.8249 0.887817C25.2073 0.887817 24.7066 1.3913 24.7066 2.0124C24.7052 8.84423 19.1968 14.3815 12.403 14.3801C8.95268 14.3794 5.66132 12.9216 3.33166 10.3623L8.28564 8.70131C8.87234 8.50502 9.18981 7.86764 8.99461 7.27764C8.79941 6.68764 8.1656 6.3684 7.57889 6.56469L0.869186 8.81379C0.41117 8.96718 0.102746 9.39891 0.104254 9.88434V16.6317C0.104254 17.2528 0.604926 17.7563 1.22256 17.7563C1.84019 17.7563 2.34087 17.2528 2.34087 16.6317V12.5236C8.09824 18.1289 17.2841 17.9794 22.858 12.1897C25.4849 9.46118 26.9503 5.81016 26.9431 2.0124C26.9432 1.3913 26.4425 0.887817 25.8249 0.887817Z" fill="#4F978D"/>
</svg>
