<svg width="28" height="18" viewBox="0 0 28 18" fill="none" xmlns="http://www.w3.org/2000/svg">
<path fill-rule="evenodd" clip-rule="evenodd" d="M26.588 0.268555C25.9703 0.268555 25.4697 0.772037 25.4697 1.39314V5.50112C19.7123 -0.104132 10.5265 0.0454439 4.95251 5.83506C2.32564 8.56359 0.860185 12.2146 0.867459 16.0124C0.867459 16.6335 1.36813 17.1369 1.98576 17.1369C2.6034 17.1369 3.104 16.6335 3.104 16.0124C3.10538 9.18053 8.61382 3.64329 15.4076 3.64467C18.8579 3.64533 22.1493 5.10319 24.4789 7.66251L19.525 9.32345C18.9382 9.51975 18.6208 10.1571 18.816 10.7471C19.0112 11.3371 19.645 11.6564 20.2317 11.4601L26.9414 9.21098C27.3994 9.05758 27.7078 8.62585 27.7063 8.14043V1.39307C27.7063 0.772037 27.2056 0.268555 26.588 0.268555Z" fill="#4F978D"/>
</svg>
