<?xml version="1.0" encoding="UTF-8" standalone="no"?>
<!DOCTYPE svg PUBLIC "-//W3C//DTD SVG 1.1//EN" "http://www.w3.org/Graphics/SVG/1.1/DTD/svg11.dtd">
<svg version="1.1" xmlns="http://www.w3.org/2000/svg" xmlns:xlink="http://www.w3.org/1999/xlink" preserveAspectRatio="xMidYMid meet" viewBox="0 0 640 640" width="31.5" height="31.5"><defs><path d="M539.01 24.41C539.01 33.29 539.01 104.37 539.01 113.25C414.49 -7.98 215.82 -4.74 95.27 120.47C38.45 179.49 6.76 258.45 6.92 340.59C6.92 354.02 17.74 364.91 31.1 364.91C44.46 364.91 55.29 354.02 55.29 340.59C55.32 192.83 174.45 73.07 321.39 73.1C396.01 73.12 467.19 104.65 517.58 160C506.86 163.59 421.15 192.33 410.44 195.92C397.74 200.17 390.88 213.95 395.1 226.71C399.32 239.47 413.03 246.38 425.72 242.13C440.23 237.27 556.32 198.35 570.83 193.49C580.74 190.17 587.41 180.83 587.38 170.33C587.38 155.74 587.38 39 587.38 24.4C587.38 10.97 576.55 0.08 563.19 0.08C549.83 0.08 539.01 10.97 539.01 24.41Z" id="gqKsKlnDO"></path><path d="M102.99 615.76C102.99 606.88 102.99 535.8 102.99 526.92C227.51 648.14 426.18 644.91 546.73 519.69C603.55 460.68 635.24 381.72 635.08 299.58C635.08 286.15 624.26 275.26 610.9 275.26C597.54 275.26 586.71 286.15 586.71 299.58C586.68 447.34 467.55 567.1 320.61 567.07C245.99 567.05 174.81 535.52 124.42 480.17C135.14 476.58 220.85 447.84 231.56 444.25C244.26 440 251.12 426.22 246.9 413.46C242.68 400.7 228.97 393.79 216.28 398.04C201.77 402.9 85.68 441.82 71.17 446.68C61.26 450 54.59 459.33 54.62 469.83C54.62 484.43 54.62 601.17 54.62 615.76C54.62 629.19 65.45 640.08 78.81 640.08C92.17 640.08 102.99 629.19 102.99 615.76Z" id="c26yqg87xI"></path></defs><g><g><g><use xlink:href="#gqKsKlnDO" opacity="1" fill="#4f978d" fill-opacity="1"></use><g><use xlink:href="#gqKsKlnDO" opacity="1" fill-opacity="0" stroke="#000000" stroke-width="1" stroke-opacity="0"></use></g></g><g><use xlink:href="#c26yqg87xI" opacity="1" fill="#4f978d" fill-opacity="1"></use><g><use xlink:href="#c26yqg87xI" opacity="1" fill-opacity="0" stroke="#000000" stroke-width="1" stroke-opacity="0"></use></g></g></g></g></svg>