<?xml version="1.0" encoding="UTF-8" standalone="no"?>
<!DOCTYPE svg PUBLIC "-//W3C//DTD SVG 1.1//EN" "http://www.w3.org/Graphics/SVG/1.1/DTD/svg11.dtd">
<svg version="1.1" xmlns="http://www.w3.org/2000/svg" xmlns:xlink="http://www.w3.org/1999/xlink" preserveAspectRatio="xMidYMid meet" viewBox="0 0 640 640" width="100" height="100"><defs><path d="M238.51 281.52C238.51 288.35 233 293.89 226.21 293.89C222.76 293.89 219.47 292.43 217.14 289.87C217.63 289.71 221.59 288.38 222.09 288.21C222.68 288.01 222.99 287.38 222.8 286.79C222.6 286.2 221.97 285.88 221.38 286.07C220.71 286.3 215.34 288.1 214.67 288.32C214.21 288.48 213.91 288.91 213.91 289.39C213.91 290.07 213.91 295.47 213.91 296.14C213.91 296.76 214.41 297.27 215.03 297.27C215.64 297.27 216.14 296.76 216.14 296.14C216.14 295.73 216.14 292.44 216.14 292.03C221.9 297.64 231.09 297.49 236.66 291.7C239.29 288.97 240.75 285.32 240.75 281.52C240.75 280.9 240.25 280.4 239.63 280.4C239.01 280.4 238.51 280.9 238.51 281.52Z" id="a11P8cqM94"></path><path d="M236.51 267.65C236.51 268.06 236.51 271.35 236.51 271.76C230.75 266.16 221.57 266.31 215.99 272.1C213.37 274.82 211.9 278.47 211.91 282.27C211.91 282.89 212.41 283.4 213.03 283.4C213.64 283.4 214.14 282.89 214.14 282.27C214.15 275.44 219.65 269.9 226.45 269.9C229.9 269.91 233.19 271.36 235.52 273.92C235.02 274.09 231.06 275.42 230.57 275.58C229.98 275.78 229.66 276.42 229.86 277.01C230.05 277.6 230.69 277.92 231.27 277.72C231.94 277.5 237.31 275.7 237.98 275.47C238.44 275.32 238.75 274.89 238.75 274.4C238.75 273.73 238.75 268.33 238.75 267.65C238.75 267.03 238.25 266.53 237.63 266.53C237.01 266.53 236.51 267.03 236.51 267.65Z" id="d19KNChryo"></path></defs><g><g><g><use xlink:href="#a11P8cqM94" opacity="1" fill="#4f978d" fill-opacity="1"></use><g><use xlink:href="#a11P8cqM94" opacity="1" fill-opacity="0" stroke="#000000" stroke-width="1" stroke-opacity="0"></use></g></g><g><use xlink:href="#d19KNChryo" opacity="1" fill="#4f978d" fill-opacity="1"></use><g><use xlink:href="#d19KNChryo" opacity="1" fill-opacity="0" stroke="#000000" stroke-width="1" stroke-opacity="0"></use></g></g></g></g></svg>